<svg xmlns="http://www.w3.org/2000/svg" width="1672" height="1672" version="1.0" viewBox="0 0 1254 1254"><path d="M0 627v627h1254V0H0zm309.1-473.2c13.6 24.1 34.3 39.6 67.4 50.7 13.9 4.6 47.4 13.6 67 17.9 64.9 14.3 83.2 18.9 109.2 27.5 24.5 8.2 44.7 16.5 63.3 26.2 71.3 37.3 123.9 89 163.6 160.9 7.3 13.1 14.6 27.6 16.3 32.2 1 2.8 1 2.8-3.5 2.8-4.3 0-19.7 4-23.6 6.1-1.3.7-1.8.5-1.8-.5 0-2-15.2-32.5-19.7-39.4-2-3.1-4.7-7.7-6.1-10.2-4.3-7.9-19.4-30.3-24.1-36-2.6-3-7.2-8.7-10.3-12.5-10.8-13.2-41.2-43.4-42.5-42.1-.3.2 1.5 2.2 3.9 4.3 8.9 7.9 17.8 16.6 17.3 17.1-.3.3-1.7-.5-3.2-1.9-1.4-1.3-2.3-1.8-1.9-1.2.9 1.6-.6 1.7-2.2.1-.9-.9-1.2-.9-1.2 0 0 .7-.7 1.2-1.5 1.2-2.6 0-1.7 2.4 2.5 6.5 3.3 3.2 3.7 4.1 2.9 5.8-.6 1-.9 3.5-.7 5.3.2 1.9.2 3.4 0 3.4s-4.3-4-9.2-8.9-9.1-8.6-9.4-8.4c-.2.2 2.8 3.7 6.8 7.6 3.9 4 9 9.5 11.4 12.2 2.3 2.7 4.2 4.4 4.2 3.7 0-2.5.2-2.7 2.1-3.4 1.3-.5 1.9-1.7 1.9-3.8 0-1.6.3-3.1.8-3.1.4-.1 2.1-.3 3.9-.5 2.8-.2 3.2.1 3.7 3.1.4 1.9 1 3.5 1.4 3.7 1.2.5 6.2 8.3 6.2 9.6 0 1.6 1.7 1.5 2.7-.2.4-.7 1.4-1.5 2.2-1.7.9-.3.4-1.5-1.8-3.8-1.7-1.8-3.1-3.8-3.1-4.4 0-1.2 4.4 3.2 9.7 9.8 3.3 4.1 4.3 6.2 2.1 4.9-.7-.4-.8-.3-.4.5.4.6 1.1.9 1.6.6.8-.5 14.4 17.7 15.6 21 .8 1.9-1 2-2.6.1-1.6-2-8-5.7-8-4.7 0 .4 1 1.9 2.3 3.2 3 3.3 3.3 7.8.7 12.1-1.7 3-1.9 4-.9 6.2.7 1.4 2 2.8 3.1 3.2 1 .3 1.6 1 1.3 1.5-.4.5 0 2.1.8 3.6.8 1.6 2.5 4.9 3.8 7.5 2 4 2.7 4.6 4.6 4.2 1.8-.5 2.3-.2 2.3 1.4 0 1.1.7 3.6 1.6 5.7.9 2.2 1.3 4.9.9 6.3l-.6 2.5-1.7-2.4c-.9-1.3-2.3-3.1-3.1-3.9-1.9-1.9-2.1-2.5 5.9 14.8 3.4 7.3 5.9 13.9 5.7 14.5-.3.7-1.3-.8-2.3-3.3s-5.4-11.6-9.7-20.4c-7.5-15.3-9.7-21.6-4.2-12.2 1.5 2.5 2.9 4.6 3.1 4.6 1.1 0-7.2-16.4-10.5-20.6-2.4-3.1-2.9-1.9-.6 1.4 1.6 2.2 5.2 10.1 4.1 9.1-2.3-2.2-8.6-13.4-8.2-14.6.6-1.5-1.7-6.7-3.4-7.8-1.4-.8-.1 2.6 1.8 4.8.8.9 1.3 1.9 1 2.2s-2.9-2.9-5.9-7.2c-21.3-31.1-32.5-44.8-54.6-66.3-20.6-20.2-36.8-33.9-58.3-49.1-26.4-18.7-47.4-30.2-90.5-49.4-11.4-5.1-79.3-29.4-102.2-36.6-3.5-1.1-6.3-2.2-6.3-2.4 0-.8 6.4.8 13.4 3.2 10.8 3.9 22.6 7.1 22.6 6.3 0-.4-3.2-1.6-7-2.5-3.9-.9-7.3-2.2-7.7-2.8-.4-.7 0-.8 1.3-.3 1 .4 3.5 1 5.4 1.2l3.5.4-3-1.5c-3-1.5-3-1.5 2.5-1l5.5.5-5-1.9c-5.3-2-10.2-2.8-7.6-1.2 1 .6 1 1 .1 1.6-.7.4-1.3-.1-1.7-1.3-.5-2.2-4.2-3.7-5.7-2.2-.4.4-1.5.6-2.4.2-1.3-.5-1.3-.6.3-1.2 1.3-.4-2-1.9-10.1-4.5-30-9.5-49.7-16.9-58.4-21.7-14-7.9-26.3-17.8-31.7-25.6-2-2.9-4.2-5.1-4.9-4.8s-2-.7-2.9-2.1c-1-1.4-1.2-2.2-.6-1.9 1.3.8 1.4.4.5-1.8-.3-.9-1.1-1.3-1.7-.9s-.7.1-.2-.7c.4-.7.2-1.5-.4-1.9-1.2-.8-6.1-18.7-6.1-21.9.1-.9 1.4 1.8 3 6.1 1.6 4.2 4.3 10.3 6.1 13.5m14 28.9c2.7 2.9 2.8 3.2.7 1.7-2.2-1.6-5.4-5.4-4.5-5.4.2 0 1.9 1.6 3.8 3.7m24.9 18.9c0 .2-.9 0-2-.6s-2-1.3-2-1.6c0-.2.9 0 2 .6s2 1.3 2 1.6m-22.1 11.8c-1.1 3.8-2.2 6.6-2.4 6.4s.5-3.4 1.7-7.1c1.1-3.8 2.2-6.6 2.4-6.4s-.5 3.4-1.7 7.1m41.1-2.9c1.4.8 2.1 1.4 1.5 1.4-.5 0-2.1-.6-3.5-1.4s-2-1.4-1.5-1.4c.6 0 2.1.6 3.5 1.4m13.5 6.3c-.3.3-1.1 0-1.8-.7-.9-1-.8-1.1.6-.5 1 .3 1.5.9 1.2 1.2m14.5 4.9c3 1.1 3.1 1.2.6.8-1.6-.4-4.3-1.3-6-2-2.3-1.1-2.5-1.3-.6-.8 1.4.3 4.1 1.2 6 2m-74.5 10.1c-1.4 4.9-2.5 9.4-2.4 9.8.5 2-2.3 9.4-3.3 8.8-.7-.4-.8.1-.3 1.6.4 1.3.3 2-.2 1.7-.6-.4-1 .9-1.1 2.7s-1.5 7.1-3.2 11.8c-1.6 4.8-3 9.4-3 10.3s-.4 1.4-.9 1.1c-1-.7-2.2 3.1-2.7 8.4-.2 1.9-1 5.3-1.8 7.5-1.4 3.9-9.5 28.9-15.2 46.7-1.5 4.8-3 8.6-3.3 8.4s-.6.9-.7 2.4c-.1 1.6-1 5.2-2.1 8.2-1.9 4.9-7.3 21.7-10.7 33.3-.8 2.7-2.8 8.8-4.4 13.5s-4.6 13.9-6.7 20.5c-8.9 28.6-11.9 37.1-13.6 38.7-1 1-2 4-2.4 7.3-.5 3.4-1.1 5.2-1.8 4.8-.6-.4-.8.2-.5 1.5.4 1.4.2 2-.4 1.6s-.8.2-.3 1.6c.5 1.6.4 2-.5 1.5s-1-.1-.5 1.5c.5 1.4.3 2-.3 1.6-.6-.3-.8.1-.5 1.2.2 1-.5 2.8-1.6 4.1-1.9 2.2-2.6 4.6-2.2 7.9.2 1-2.5 10.2-4.7 16.2-.3.8-.6 2.1-.8 2.8-.1.7-1 2.4-1.9 3.8-.9 1.3-1.3 3-.9 3.6s.3.8-.3.5c-.7-.4-1.2 1.4-1.5 4.8-.3 3.6-1.3 6.7-3 9.2-2 3-2.5 4.9-2.4 9 .1 2.8-.2 4.9-.7 4.6-.4-.2-.5.6-.3 1.9.3 1.2-.1 3.6-.8 5.3-.9 1.9-1.5 2.4-1.5 1.3-.2-4.1-2.1-2.3-4.1 3.9-3.1 9.6-3.2 9.9-3.6 8.7-.3-.5 3.3-12.7 8-27 4.6-14.2 12.7-39.4 18-55.9s11-33.8 12.6-38.5 5.9-18 9.5-29.5c26.4-83 66.5-204.9 67.1-204.2.3.3-.7 4.5-2.1 9.5m632.7 31.3c1.3.6 12.7 13.9 25.3 29.6 12.7 15.7 24.8 30 27 31.8 9.3 7.6 12.4 8.1 58.5 9 37.1.8 38 1 40.6 7.2 2 4.7 1.2 6.7-8 21.2-35.8 56.5-35 54.9-34.9 66.1 0 6.6 1.2 11.8 10.6 43.6 5.9 19.9 10.7 36.9 10.7 37.9 0 2.7-3.1 7.2-5.7 8.4-3.6 1.6-6.3 1.4-18-1.8-34.7-9.4-61.7-16.1-65.1-16.1-6.8 0-16.2 3.7-24.9 9.8-51.4 35.9-53.8 37.5-57.5 37.9-3.3.5-4.2.1-7.3-3-2.8-2.8-3.5-4.3-3.5-7.4-.1-2.1-1.1-20-2.4-39.8-2.1-34.1-2.4-36.4-4.8-41.7-3.7-7.9-8.7-12.6-39.6-36.3-15.1-11.6-28-22.2-28.8-23.7-2.1-4-1.7-7.3 1.1-10.6 2.1-2.5 8.3-5.3 32.3-14.8 45.1-17.8 46.2-18.4 53-28.7 1.4-2.1 8.1-19.7 14.8-39 13.2-38.3 14.5-40.7 20.7-40.7 2 0 4.6.5 5.9 1.1m-262.7 100c1.1 1.7-.1 2.1-1.5.4-.8-.9-.8-1.5-.2-1.5s1.4.5 1.7 1.1m12 13.7c-.2.3-1.1-.1-2-.8-1.1-.9-1.5-.9-1.5-.1 0 .7-.4 1-1 .6-.5-.3-.7-1.2-.4-1.9.3-.8.1-1.7-.5-2.1-.6-.3-1.1-1.1-1.1-1.8 0-.6 1.6.4 3.5 2.3 1.9 1.8 3.3 3.6 3 3.8m32.6 43.9c1.3 1.6 1.2 1.7-.3.4-1-.7-1.8-1.5-1.8-1.7 0-.8.8-.3 2.1 1.3m4.8 7.3c1.2 2.2 1.9 4 1.4 4-.4 0-1.8-1.8-3.1-4-1.2-2.2-1.9-4-1.4-4s1.8 1.8 3.1 4m-1.5 1.6c1.1 2.8.6 3.8-.9 1.8-.8-1-1.5-2.2-1.5-2.7 0-1.3 1.8-.7 2.4.9m5.5 22.5c1.4 4 1.4 5.9.1 5.9-.5 0-1-.5-1-1.2 0-.6-.7-1.9-1.6-2.9-1.6-1.8-1.3-4.9.5-4.9.5 0 1.4 1.4 2 3.1m129.1-1.3c0 .4-1.9 1.8-4.2 3-2.4 1.2-3.4 2.1-2.3 1.9 1.1-.1 2.8.6 3.8 1.6 1.8 1.8 1.8 1.9 0 3.2-1 .8-3.1 1.9-4.8 2.5-1.6.7-6.8 2.9-11.5 5.1-4.7 2.1-8.9 3.9-9.4 3.9s-4.1 1.5-8 3.4-8.9 4-11.1 4.6c-2.3.7-5.2 2.1-6.5 3.2l-2.5 1.9 3.5-.7c4.7-.9 3.7-.1-3.9 3-7.8 3.1-10.2 3.4-4.3.5 5.5-2.8 4.8-3.4-1.4-1.3-5.6 1.8-7.8 3.4-4.8 3.4 1.4.1 1 .6-1.6 2-3.7 2-8.9 2.9-6 1 3.4-2.2-2.4-.9-8.4 1.9-3.3 1.6-7.7 3.2-9.6 3.5s-5.7 2-8.5 3.6c-4.1 2.5-4.5 2.9-2 2.4 4.6-1 1.8 1.3-4.5 3.7-4.4 1.7-5.2 1.7-4.7.4.9-2.2-.6-1.9-10.9 2.5-5.2 2.2-9.6 4-10 4-.3 0-3 1.2-6 2.7-5.2 2.5-6.8 4.3-4.1 4.3.6 0 .4.5-.6 1.1-2.9 1.7-8.7 4-8.7 3.4 0-.3 1.1-1 2.5-1.5s2.5-1.4 2.5-2c0-1.3-4.2-.3-9 2-1.9 1-4.6 2.1-6 2.5s-3.1 1.2-3.8 1.8c-.8.6-2.2 1.2-3.2 1.4-2.4.4-16.3 6-24.1 9.8-3.7 1.8-8.2 3.5-10 3.9-1.9.3-6.1 2-9.4 3.6s-6.5 3-7.2 3-2.5 1.2-4 2.6l-2.8 2.7 2.5-.8c3.6-1.1 1.4 1-3.1 2.9-3.4 1.4-3.7 1.4-3.5-.2.1-2.3-4.9-2-7.6.5-1.1 1-2.5 1.8-3.1 1.8-1.2 0-13.9 5.1-20.7 8.3l-3.5 1.6 2.9.6 2.9.5-3.7 1.7c-4.5 2.2-6 2.3-5.2.2.5-1.3.1-1.4-2.7-.8-1.7.3-5.4 1.7-8.2 3-9.7 4.4-27.6 11.5-30.8 12.1-1.8.3-4.5 1.3-6.2 2.3-1.6 1-4.8 2.3-6.9 3-2.2.7-5.9 2.5-8.3 4s-6 3.1-8.1 3.5c-2 .4-4.2 1.1-4.8 1.6-1.2 1-6.4 2.9-22.8 8.5-5.4 1.8-10.6 4-11.6 4.9-.9.8-2.3 1.5-3.1 1.5-.7 0-3.6 1.1-6.4 2.4-9.3 4.4-18 7.6-20.7 7.6-5.1 0-3.9-2 3.4-5.5 9.5-4.6 8-4.1-8.6 2.5-7.6 3-13.4 5.6-12.8 5.8s3.2-.6 5.8-1.7c5.2-2.4 5.9-2.2 4.9.9-.4 1.3-2.7 3-6 4.5-7.5 3.3-10.7 3.5-12 .9-1.2-2.4-.7-2.5-11.5 2.3-2.5 1.1-10.6 4.4-18 7.3-7.4 2.8-16 6.3-19 7.6s-9.8 4-15 6c-10.3 3.9-35.1 14-44.3 18-3.2 1.4-10.8 4.5-17 6.9s-17 6.6-24.2 9.4c-7.1 2.8-14 5.1-15.2 5.1-1.3 0-2.3.4-2.3.8 0 1.3-7.5 4.4-38.5 15.7-9.1 3.3-37.7 14.6-58 22.8-6 2.5-17.2 7-24.9 10.1-13.9 5.7-19 6.8-9.9 2.3 2.6-1.4 23-9.7 45.3-18.7 36.1-14.4 51.9-20.5 72.8-28 3.4-1.3 6.2-2.4 6.2-2.6 0-.8-15.9.9-20.4 2.2-5.9 1.7-6.6 1.7-4.6.4 1.3-.9 1.2-1.2-.4-2.5-1.1-.8-1.5-1.5-1-1.5.6 0 1.5.5 2.1 1.1.9.9 2.9.8 8-.2 3.7-.7 5.9-1.5 4.8-1.7-3.9-.7-16.2-4.4-25.6-7.8-13.7-4.9-24.8-7.6-27.8-6.9-4.8 1.2-12.1 4.7-12.1 5.8 0 .7.4.7 1.2-.1.7-.7 1.9-1.2 2.9-1.2 1.2 0 1.5.6 1.1 2.5-.5 2.7-.6 2.8-5.1 1.9-1.7-.4-3.1-1.2-3.1-1.9 0-.8-2.6-.3-8.1 1.6-8.7 3.1-9.9 3.4-9.9 2 0-.5 1.2-1.2 2.7-1.6 1.5-.3 6.8-2.3 11.8-4.4 4.9-2.1 11.6-4.6 14.8-5.6 5.6-1.9 5.9-1.9 13-.1 3.9 1 12.4 3.6 18.7 5.8 13.9 4.7 17.2 5.5 28.6 6.8 10.4 1.1 23.6-.4 31.9-3.8 2.8-1.1 15.6-6.3 28.5-11.5 58.3-23.5 130.1-52.8 185.5-75.7 10.5-4.3 28.2-11.7 39.5-16.3 11.3-4.7 24.6-10.2 29.5-12.2 5-2.1 16.4-6.8 25.5-10.5s27.1-11.1 40-16.5c12.9-5.3 29.8-12.3 37.5-15.5 14-5.7 65.1-26.9 82-34 5-2.1 18-7.4 29-12 11-4.5 26.9-11.1 35.2-14.6 8.4-3.5 15.6-6.4 15.9-6.4s2-.7 3.7-1.5c4.4-2 32-13.3 33-13.4.4-.1.7.3.7.7m-111.3 19.9c-.6.5-5.7-10.1-5.7-11.8 0-.8 1.4 1.5 3.1 5 1.6 3.5 2.8 6.5 2.6 6.8m-9.9 2.8c.6 1.4.8 2.5.3 2.5-.4 0-1.3-1.1-1.9-2.5s-.8-2.5-.3-2.5c.4 0 1.3 1.1 1.9 2.5m85.8 5.2c-1.6.8-4.3 1.9-6 2.4-2.9.8-3 .7-1.2-.6 1.1-.8 2.6-1.5 3.3-1.5s1.3-.3 1.3-.8c0-.4 1.2-.8 2.8-.9l2.7-.1zm-50.1 19.9c-2.7 1.3-5.7 2.4-6.5 2.3-.8 0 .8-1.1 3.5-2.4 2.8-1.3 5.7-2.4 6.5-2.4s-.7 1.1-3.5 2.5m35.9 48.9c17.2 68.7 17.9 132 2.1 201.3-11.3 49.7-28.7 93.2-56 140.2-10.6 18.1-37.9 59.7-41.8 63.5-1.6 1.6-.2-.7 10.8-17.2 5.5-8.3 13.6-21.1 18-28.4 4.4-7.2 9.5-15.3 11.2-18 1.8-2.7 4.1-6.8 5-9.1.9-2.4 3.4-7.3 5.5-10.9 3.9-6.8 4.5-8.5 2.8-7.4-.5.3-1 .1-1-.5 0-.7.6-1 1.4-.7 1 .4 2.4-1.3 4.4-5.8 1.7-3.4 3.3-7.4 3.7-8.7l.6-2.3-2.1 2.4-2.1 2.5.6-2.7c.5-1.7.3-2.7-.4-2.7-.6 0-1.1-.7-1.1-1.5 0-1.1-.7-1.4-2.5-.9-2.4.6-2.5.4-1.9-2.7 1.1-5.7-1.1-2.2-5.2 8.1-4.3 11.2-8.3 19.4-9 18.7-.3-.3.1-1.8.9-3.4 1.4-2.7 14-35.3 20.6-53.3 8.2-22.7 16.5-60.2 21.7-99 2.6-18.6 2.6-72.3.1-91.5-2.2-17-6.2-39.8-8.8-50.5-2.6-10.4-11.2-39-14-46.6-1.9-4.9-2.4-5.5-4.3-4.9-1.1.4-6.7 1.8-12.2 3.2l-10.1 2.5 1.9 5c1 2.8 1.7 5.2 1.4 5.5-.6.7-4.7-10.7-4.1-11.7.3-.5 2.9-1.6 5.8-2.6 9-2.9 21.8-8.1 32.7-13.2l10.5-5 5.7 17.2c3.1 9.4 7.3 23.4 9.2 31.1M715 528.4c0 .2-.9.6-2 .9s-1.8.1-1.4-.4c.5-.9 3.4-1.3 3.4-.5m-5 2.1c0 .8-5.8 3.5-7.6 3.5-2.4 0-1.2-1 3.3-2.5 4.5-1.7 4.3-1.6 4.3-1m80 3.3c0 .7-.4 1-1 .7-.5-.3-1-1.6-1-2.8 0-1.8.2-1.9 1-.7.5.8 1 2.1 1 2.8m4.5 15.4c1.5 4.8 2.5 9.3 2.2 10-.2.7-1-.7-1.6-3.2-.7-2.5-1.8-6.3-2.6-8.5-.7-2.2-1.5-5.6-1.9-7.5-.8-4.9.5-1.6 3.9 9.2m-26.6-7.2c0 1-.3.8-.9-.5-1.2-2.7-1.2-4.3 0-2.5.5.8.9 2.2.9 3m6 14.8c1.7 5.4 3.3 11.8 3.7 14.4.3 2.6 1 4.5 1.5 4.2s.6.2.3 1 .2 3.6 1.1 6.3c.9 2.6 1.9 7 2.2 9.8.3 2.7 1.1 7.2 1.9 10 1.9 6.9 5.1 32.9 6.4 51.5 2 28.4-1.6 71.6-8.9 106.5-4.8 22.6-14.7 61.2-18.4 71-1.4 3.8-4.6 12.4-7.1 19-2.4 6.6-6.5 16.7-9.1 22.5-2.5 5.8-6.6 15.2-9 21-4.5 11-21.1 44.1-28.5 57-2.4 4.1-7.2 12.9-10.7 19.5-3.6 6.6-9.3 16.7-12.7 22.5-3.5 5.8-8.6 15-11.5 20.5-5.3 10.1-8.1 14.3-6.3 9.5 1.9-4.9 13-25.6 18.4-34.5 3.1-5 7-11.7 8.7-15s5.6-10.3 8.6-15.5c5.6-9.5 31-60.2 35.8-71.5 1.4-3.3 4.2-9.8 6.2-14.5 20.4-47.5 36.1-108.7 41.5-162.5 1.4-14.1 1.4-60.3 0-72-2.7-22.3-4.3-32.6-6.1-41-1.1-5-2.9-13.1-4-18-1.6-7.5-3.5-14.4-9.5-33.2-.5-1.7-.5-1.7.9 0 .9 1 2.9 6.2 4.6 11.5m17.1-4.3c0 .5-.5.3-1-.5s-1-2-1-2.5c0-.6.5-.3 1 .5s1 1.9 1 2.5m-15 1.1c0 .8-.4 1.2-1 .9-.5-.3-1-1-1-1.6 0-.5.5-.9 1-.9.6 0 1 .7 1 1.6m-142 8.8c0 .2-.7.7-1.6 1-.8.3-1.2.2-.9-.4.6-1 2.5-1.4 2.5-.6m167.3 15.1c.4 3.4.3 4.2-.3 2.5-.8-2.5-1.3-8.7-.6-7.9.2.2.6 2.6.9 5.4M203.6 591c-1.4 4.4-2.6 8.6-2.6 9.3s-.9 3-2 5.2c-1.7 3.5-1.9 3.6-1.3 1 1-5.1 7.4-24.7 8-24.2.2.3-.7 4.2-2.1 8.7m.8 9.2c-1.5 4.6-3 7.5-3.2 6.5-.4-1.8 4.8-16 5.6-15.3.2.3-.9 4.2-2.4 8.8m601.9 3.3c.4 2.7.3 3.5-.3 2.5-.5-.8-1-2.8-1-4.4 0-3.9.6-3 1.3 1.9M543 600.4c0 .2-.9.6-2 .9s-1.8.1-1.4-.4c.5-.9 3.4-1.3 3.4-.5m-348.6 20.1c-2.3 7.5-3 6.2-.8-1.6 1-3.5 2-5.7 2.2-5.1.2.7-.4 3.7-1.4 6.7m2.7.2c-1.2 2-1.4 1.4-.5-1.2.4-.9.9-1.4 1.1-1.1.3.2 0 1.3-.6 2.3m-11.8 27.1c-5.8 17.6-8.2 22.7-3.9 8.6 3.3-11 8.8-26.5 9.2-26.1.2.2-2.2 8.1-5.3 17.5m624.4-8.6c-.2 1.3-.4.5-.4-1.7-.1-2.2.1-3.2.4-2.3.2 1 .2 2.8 0 4m-621.8 10.7c-.6 1.8-1.3 3-1.5 2.8s.1-1.8.7-3.6 1.3-3 1.5-2.8-.1 1.8-.7 3.6m-11.6 27.2c-.5 1.8-1.4 3.4-2 3.6-.8.3-.6-1 .4-3.6 1.9-4.8 2.8-4.8 1.6 0m153.7 9.3c0 .2-.7.7-1.6 1-.8.3-1.2.2-.9-.4.6-1 2.5-1.4 2.5-.6m-99.6 5.6c.7 0 2.1.6 3.2 1.4 1.8 1.4 1.8 1.5-.6 1.4-1.4-.1-3.6-1.1-5-2.1-1.7-1.3-1.9-1.8-.7-1.4 1 .4 2.4.7 3.1.7m-54.4 4c1.8 1.2.2 1.2-2.5 0-1.3-.6-1.5-.9-.5-.9.8 0 2.2.4 3 .9m1 7.9c10.7 3.8 22.4 7.7 26 8.7 6.4 1.8 6.4 1.8 3.5 3-2.2.9-3.2.9-4.1-.1-.7-.6-3.8-1.9-7.1-2.9-3.2-.9-13.1-4.4-22-7.7l-16.1-5.9-8.4 3.4c-30.1 12.2-26.8 11.1-26.8 9.7 0-.5 4.8-2.8 10.8-5.1 5.9-2.3 13.6-5.5 17.2-7 3.6-1.6 6.7-2.9 7-2.9.3-.1 9.3 3 20 6.8m12.8-3.2c2.3.9 4.1 1.7 3.9 1.9-.5.5-12.7-3.6-12.7-4.3 0-.5 2.8.3 8.8 2.4M220 707c-2.4 1.5-3.6 1.1-1.4-.4 1-.8 2.1-1.2 2.4-1 .2.3-.2.9-1 1.4m8.9-.6c-1.2 1.2-10.9 4.4-10.9 3.6 0-.5 2.1-1.5 4.8-2.3 5-1.6 6.8-1.9 6.1-1.3m40.6 7.8c-4.3 3.6-8.1 5.5-19.5 9.8-17.1 6.4-18.5 7.3-23.2 15.8-2.3 4.2-7.3 12.8-11 19-3.8 6.3-7.8 13.2-9 15.5-2 4-3.4 5.7-5 5.7-.4 0 1.2-2.8 3.6-6.3 2.4-3.4 6-9.4 7.9-13.2 2-3.9 6.9-12.4 10.9-19l7.3-12 10-3.7c5.5-2.1 11.9-4.7 14.2-5.8 2.4-1.1 4.6-2 5.1-2 .4 0 3.2-1.6 6.2-3.5 6.9-4.3 7.5-4.4 2.5-.3m-148 3.7c5 1.6 12.6 4.3 17 6s12 4.3 16.8 5.7c5.1 1.6 8.5 3 7.9 3.6-.5.5-2.4.2-4.5-.7-2-.8-6-2-8.9-2.6-5-1-14-4.3-30.2-10.9-6.3-2.6-7.2-2.7-10-1.4-7.9 3.5-24.7 9.5-25.7 9.2s3.9-2.4 22.6-9.7c2.8-1.1 5.2-2 5.5-2 .3-.1 4.6 1.2 9.5 2.8m148.1.3c-3.6 4.4-12.4 17.8-17.2 26-2.1 3.7-4 6.3-4.2 5.9-.7-2.1 15.9-28.3 21-33.1 3.2-3 3.4-2.4.4 1.2m-117.9 2.4c-.3.3-1.2.4-1.9.1-.8-.3-.5-.6.6-.6 1.1-.1 1.7.2 1.3.5m15.3 4.5c1.8 1.1-3.4.1-6.5-1.3-1.3-.5-.9-.6 1.5-.2 1.9.4 4.2 1 5 1.5m39.5 1.4c-1.6.8-3.7 1.4-4.5 1.4s-.1-.6 1.5-1.4c1.7-.7 3.7-1.3 4.5-1.3s.2.6-1.5 1.3m-126.3 2.1c-1.2.8-3.2 1.4-4.5 1.2-1.9-.4-1.7-.6 1.3-1.5 5-1.6 5.8-1.5 3.2.3M209 728c0 .5-.4 1-1 1-.5 0-1-.5-1-1 0-.6.5-1 1-1 .6 0 1 .4 1 1m-.3 2.6c-.3.3-1.2.4-1.9.1-.8-.3-.5-.6.6-.6 1.1-.1 1.7.2 1.3.5M90 733c2 .6 2.1.8.5.8-1.1 0-2.9-.3-4-.8-2.5-1.1.1-1.1 3.5 0m129.2 4.2c-.7.7-1.7 1.3-2.4 1.4-3.2.6-28.5 10.8-30 12.1s-6.9 10.2-23.8 38.5c-2.8 4.9-5.5 8.8-6 8.8-.8 0 .4-2.2 14.8-26.5 13.7-23.1 11.5-21 30.8-29.1 9.3-4 17.1-7 17.3-6.8.3.3-.1 1-.7 1.6m-5.8 10c-.9 1.8-3.8 6.9-6.4 11.3s-6.9 11.7-9.5 16.2c-2.6 4.6-5 8.5-5.5 8.8-1.1.7 5.5-11.8 11.5-21.5 2.9-4.7 6.4-10.6 7.9-13.3 3-5.3 4.5-6.4 2-1.5m-40.6 10-6.3 10.8c-2.1 3.6-5.8 10.1-8.3 14.5-2.4 4.4-5.1 8.9-5.9 10-4.5 6 .8-3.9 15.9-29.6 2.5-4.3 4.5-7.9 4.3-7.9s-3.8 1.4-8 3.1-7.9 2.8-8.1 2.6c-.3-.2 3.3-1.9 7.8-3.7 4.6-1.8 8.7-3.7 9.2-4.1 2-1.8 1.7.2-.6 4.3m71.4 1.4c-3.8 6.8-6 8.5-12.8 9.9-1.6.3-.6-.4 2.3-1.6 4.5-1.8 5.6-2.9 8.9-8.5 5-8.5 6.3-8.3 1.6.2m-120.2.8c0 .2-.7.7-1.6 1-.8.3-1.2.2-.9-.4.6-1 2.5-1.4 2.5-.6m-4.5 2.6c-.3.5-1.2 1-1.8 1-.7 0-.6-.4.3-1 1.9-1.2 2.3-1.2 1.5 0m31 1.4c-5.3 2.4-11.5 4.2-10.3 3.1.8-.9 12.9-5.4 14.3-5.4.6 0-1.2 1-4 2.3M134 776.9c-1.6 3.3-3.4 6.3-4.1 6.6-1.1.7 2.1-6 4.9-10.3 2.6-4 2.3-2.3-.8 3.7m55 8.1c-.8.5-2.2 1-3 1-1.3 0-1.3-.1 0-1 .8-.5 2.2-1 3-1 1.3 0 1.3.1 0 1m-63 6.4c-2.8 4.9-5 7.7-5 6.2 0-1.2 7.2-12.7 7.7-12.2.3.2-.9 3-2.7 6m-10.2 17.3c-3.9 7.3-5.7 9.7-6.6 8.8-.4-.4 9.8-16.5 10.4-16.5.3 0-1.4 3.5-3.8 7.7m6.2 3.7c0 .2-.7.7-1.6 1-.8.3-1.2.2-.9-.4.6-1 2.5-1.4 2.5-.6m173.1 9.8 2.4 2-3.1-1.7c-1.7-1-4.1-2.6-5.5-3.7l-2.4-2 3.1 1.7c1.7 1 4.1 2.6 5.5 3.7m13 8.1c1.8 1.3 1.4 1.2-1.6-.3-2.2-1.2-5.1-3-6.5-4.1-2.1-1.7-1.8-1.7 1.6.3 2.2 1.2 5.2 3.1 6.5 4.1m-6.1.3c0 .2-.9 0-2-.6s-2-1.3-2-1.6c0-.2.9 0 2 .6s2 1.3 2 1.6m29.8 14.1c5.6 3.6 10.2 6.7 10.2 6.9 0 .3-.3.3-.7.1-10.4-6.2-23-14.1-23.8-14.9-1.6-1.7 3.2 1 14.3 7.9m453.8 6.9c-.4.9-.9 1.5-1.1 1.2-.3-.3-.3-1.3.1-2.2s.9-1.5 1.1-1.2c.3.3.3 1.3-.1 2.2m-438.6 3c0 .2-.9 0-2-.6s-2-1.3-2-1.6c0-.2.9 0 2 .6s2 1.3 2 1.6m13.2 8.1c.6.7-1 .1-3.6-1.3-2.5-1.4-4.9-3-5.2-3.6-.9-1.4 7.4 3.2 8.8 4.9m5.8 3.9c0 .2-.9 0-2-.6s-2-1.3-2-1.6c0-.2.9 0 2 .6s2 1.3 2 1.6m397.1 7c-1.7 3.7-3.4 6.4-3.7 6.1-.4-.3.8-3.6 2.5-7.3s3.4-6.4 3.7-6.1c.4.3-.8 3.6-2.5 7.3m-390.6-3.2c1.1.8 1.6 1.5 1 1.6-.5 0-2.3-1.2-4-2.6-3.1-2.6-.6-1.8 3 1m402 2.7c-.9 1.7-1.9 2.8-2.2 2.5-.6-.6 2.3-5.6 3.2-5.6.3 0-.2 1.4-1 3.1m-395.4 1.6c1.3 1.7 1.3 1.7-.6.3-1.1-.8-2.2-1.6-2.4-1.7q-.3-.3.6-.3c.6 0 1.7.8 2.4 1.7m5.9 3.9c0 .2-.9 0-2-.6s-2-1.3-2-1.6c0-.2.9 0 2 .6s2 1.3 2 1.6m11 7c0 .2-.9 0-2-.6s-2-1.3-2-1.6c0-.2.9 0 2 .6s2 1.3 2 1.6m360.5 1.7c-1.8 4.2-11.2 20.8-12.6 22.2-1.6 1.5 1-4 7.5-15.9 5.7-10.5 8.1-13.5 5.1-6.3M409 893.6c0 .7-5.8-2.5-6.5-3.6-.3-.5 1-.1 2.9 1.1 2 1.2 3.6 2.3 3.6 2.5m26 16.1c1.3 1.2 1.1 1.2-1.7.3-1.7-.6-3.9-2-4.9-3.1-.9-1-2.1-1.9-2.5-1.9-.9 0-15.9-9.9-15.9-10.5s23.1 13.4 25 15.2m321.2-5.5c-.7.7-1.2.8-1.2.2 0-1.4 1.2-2.6 1.9-1.9.2.3-.1 1.1-.7 1.7M444 915.1l2.5 2-3.2-1.6c-1.8-.8-3.3-1.8-3.3-2 0-1 1.6-.4 4 1.6m26.3 16.7c3.7 2.5 6.7 4.8 6.7 5s-1.2-.4-2.7-1.4c-1.6-1-5-3.2-7.8-4.9-9.2-5.7-16.5-10.6-16.5-11 0-.6 11.7 6.5 20.3 12.3m265.4-8.1c-4.8 8.5-12.1 20.6-13.7 22.4-1.7 2.1 0-1 10.5-18.9 1.3-2.3 2.7-4.2 3-4.2.4 0 .4.3.2.7m-260.1 17.1c-.4.3-1.4-.2-2.4-1.2-1.6-1.8-1.6-1.8.6-.6 1.3.6 2.1 1.4 1.8 1.8m19.4 6.9c2 2.1-6.3-2.6-9.8-5.5-2-1.6-1.2-1.4 2.8.9 3 1.7 6.2 3.8 7 4.6m18 11.2c4.7 3.1 10.6 6.9 13.2 8.4s5 3.3 5.4 3.9c.9 1.4-.5.6-19.7-11.7-7.7-4.9-14.3-9.4-14.7-9.9-.7-1.2 4.6 2 15.8 9.3m-12-2.3c0 .2-.9 0-2-.6s-2-1.3-2-1.6c0-.2.9 0 2 .6s2 1.3 2 1.6m224.1.1c-2.4 3.4-6.8 8.3-6 6.8.3-.5 2-2.9 3.8-5.3 3.6-4.6 5.5-5.9 2.2-1.5m-9.3.8c-.6 1.4-1.3 2.3-1.5 2.1-.5-.5 1.5-4.6 2.2-4.6.3 0-.1 1.1-.7 2.5m.6 11c-.9 1.4-1.8 2.5-2.1 2.5-.5 0 .5-1.8 2-3.8 1.7-2.2 1.8-1.3.1 1.3m-180.9 5.3c-.3.3-1.1 0-1.8-.7-.9-1-.8-1.1.6-.5 1 .3 1.5.9 1.2 1.2m17.5 10.7c7.2 4.6 13 8.7 13 8.9 0 .6-1.7-.3-15.9-9.2-9.1-5.8-12.3-8.2-10.7-8.2.4 0 6.5 3.8 13.6 8.5m149.4-5.5c-1 1.6-2 2.8-2.2 2.6-.4-.5 2.8-5.6 3.5-5.6.2 0-.4 1.3-1.3 3m-4.8 8.2c-1.8 2.6-2.2 1.7-.5-1.4.6-1.1 1.3-1.7 1.6-1.5.3.3-.2 1.6-1.1 2.9m5.8-1c-.4.7-2.8 4.2-5.4 7.8-11.9 16.4-26.1 43.9-31.4 60.8-6.8 21.6-7.2 37.4-1.5 56.1 2.7 8.8 1.7 8.8-1.5-.1-4.8-13.6-5.6-22-3.6-37.5 1.2-8.8 8.1-30.7 11.5-36.8 1.3-2.2 4.7-8.7 7.7-14.5 7-13.6 22.5-37 24.5-37 .2 0 .1.6-.3 1.2M593 1010.1c19 12.4 24.3 16.3 15.5 11.4-7.1-4-36.3-23.4-37.1-24.7-.9-1.4.2-.7 21.6 13.3m29.5 19.1c2.2 1.6 7.1 4.9 10.9 7.3 6.3 3.9 6.7 4.3 3.8 4-3.8-.2-10.8-4.6-10.4-6.3.2-1.1-1.1-1.6-3.1-1.3-.5.1-.5-.4-.1-1 .4-.7.2-1-.7-.7-2.2.8-8.9-3.3-8.9-5.4 0-1.6.3-1.7 2.3-.7 1.2.6 4 2.5 6.2 4.1m41.2 11c-.3.8-.6.5-.6-.6-.1-1.1.2-1.7.5-1.3.3.3.4 1.2.1 1.9"/><path d="M309.6 163.3c.3 1 .9 1.5 1.2 1.2s0-1.1-.7-1.8c-1-.9-1.1-.8-.5.6M441.5 229.5c1.7.8 3.9 1.4 5 1.4h2l-2-.8c-1.1-.4-3.3-1.1-5-1.4l-3-.6zM456 234.2c0 .4 1.1 1 2.5 1.4 2.7.7 2.4 2.4-.4 2.4-1 0-2.4.6-3 1.4-1.3 1.5 1.4 2.8 14.9 7.2 3 .9 6.9 2.3 8.7 3.1 1.7.7 8.7 3.3 15.5 5.7 6.7 2.4 13.1 4.7 14.1 5.1s1.7.3 1.7-.4c0-.6-.9-1.1-2-1.1s-2-.5-2-1c0-.6.7-1 1.5-1s1.5-.4 1.5-.9c0-1.6-3-2.1-8.4-1.5-5.3.6-8.4-.3-11.4-3.2-.7-.7-1.8-1.1-2.5-.8-1.6.6-8.7-2.3-8.7-3.5 0-.5 1.2-2 2.8-3.2l2.7-2.2-3.5.7c-2.4.4-3 .3-2-.3 1.7-1.2 2.5-.8-11.7-5.4-5.7-1.9-10.3-3-10.3-2.5m8.5 3.8c-.3.5-1.1 1-1.6 1-.6 0-.7-.5-.4-1 .3-.6 1.1-1 1.6-1 .6 0 .7.4.4 1m4.5 1c1.5 1 1.4 1.1-2.8 1.5-1.8.2-2 0-1.1-1.1 1.3-1.6 1.9-1.7 3.9-.4"/><path d="M489.5 245c.3.5 1.6 1 2.8 1 1.8 0 1.9-.2.7-1-2-1.3-4.3-1.3-3.5 0M485 246.5c0 1.2 4.3 2.5 6.3 1.9 2.1-.7 2.1-.7.2-1.5-2.2-.9-6.5-1.2-6.5-.4M495.8 246.7c.7.3 1.6.2 1.9-.1.4-.3-.2-.6-1.3-.5-1.1 0-1.4.3-.6.6M503.2 249.4c.9.9 2.7 1.6 4 1.6 1.8-.1 2-.3.8-.9-.8-.5-2.6-1.2-4-1.6-2.2-.7-2.3-.6-.8.9M500 252c-1.3.8-1.3 1 .2 1 .9 0 2-.5 2.3-1 .8-1.3-.5-1.3-2.5 0M519.6 255.1c.3.5 0 .9-.7.9-1 0-1 .3-.1 1.2 1 .9 1.6.9 2.8-.4 1.4-1.4 1.4-1.6-.5-2.1-1.2-.3-1.9-.1-1.5.4M523 266.4c0 .2.7.7 1.6 1 .8.3 1.2.2.9-.4-.6-1-2.5-1.4-2.5-.6M527 268.4c0 .2.7.7 1.6 1 .8.3 1.2.2.9-.4-.6-1-2.5-1.4-2.5-.6M535 272.4c0 .2.7.7 1.6 1 .8.3 1.2.2.9-.4-.6-1-2.5-1.4-2.5-.6M565 273.5c0 .7 11.8 6.5 13.2 6.5.7-.1-.5-1-2.7-2.2-5.3-2.8-10.5-4.9-10.5-4.3M556 282.4c0 .6 10.1 6.1 12.5 6.9 1.9.7 1.9.6.2-.7-1.4-1-1.5-1.5-.5-1.9.7-.3-.1-.6-1.7-.6-1.7-.1-3.9-.7-5-1.4-2.2-1.5-5.5-2.8-5.5-2.3M587 284.4c0 .2.7.7 1.6 1 .8.3 1.2.2.9-.4-.6-1-2.5-1.4-2.5-.6M591 286.3c0 .8 14.2 8.8 14.7 8.4.2-.3-1.7-1.8-4.4-3.3-2.6-1.5-5.8-3.3-7-4-2.2-1.4-3.3-1.7-3.3-1.1M578.4 294.9c.4.6 2.2 1.8 3.9 2.7 3 1.4 3.1 1.4 1.2-.1-3-2.5-5.9-3.9-5.1-2.6M615.2 301.2c2.4 1.8 6.1 4.5 8.3 5.9s5.9 4.1 8.2 6 6.7 5.2 9.7 7.3c4.3 3 5.3 4.2 4.5 5.2-1.2 1.5-.4 3.4 1.5 3.4.6 0 1.7.5 2.4 1.2.6.6 1.9 1.3 2.8 1.4 1 .2.3-.9-1.7-2.6-5.7-4.9-2.1-3.3 4.6 2 3.5 2.7 6.6 5 7 5 .6 0-8.6-7.6-21-17.2-5.3-4.2-29.3-20.8-30-20.8-.4 0 1.3 1.5 3.7 3.2M588 300.9c1.4 1.1 3 2.1 3.5 2.1 1.1 0-.7-1.4-4-3.1-1.3-.7-1.2-.3.5 1M615 304.4c0 .9.5 1.6 1.1 1.6.7 0 1.8.8 2.5 1.7 1.3 1.7 1.3 1.7 1.4 0 0-.9-.4-1.7-.9-1.7s-1.7-.7-2.5-1.6c-1.5-1.4-1.6-1.4-1.6 0M606.6 314.5c1 .8 2.3 1.5 2.8 1.5.6 0 .1-.7-1-1.5-1-.8-2.3-1.5-2.8-1.5-.6 0-.1.7 1 1.5"/><path d="M624 315c0 2 3.3 4 6.7 4 1.4 0 1.3-.3-.3-2.1l-1.9-2.1 3.2 1.8c2.2 1.3 2.8 2.1 2 2.7-.9.6-.8.8.1.5.8-.2 1.4-.8 1.4-1.3 0-1.2-6.2-4.8-7-4.1-.2.3-1.3.1-2.3-.5-1.6-.8-1.9-.6-1.9 1.1M613.5 320c.3.5.8 1 1.1 1 .2 0 .4-.5.4-1 0-.6-.5-1-1.1-1-.5 0-.7.4-.4 1M620 324.5c1.9 1.9 3.5 3.5 3.7 3.5s.3-1 .3-2.3c0-1.8-.8-2.6-3.7-3.5l-3.6-1.1zM630.5 333c.3.5.8 1 1.1 1 .2 0 .4-.5.4-1 0-.6-.5-1-1.1-1-.5 0-.7.4-.4 1M636.5 338c1.1 1.2 3.4 3.1 5 4.3l3 2-3-3.2c-1.6-1.8-3.9-3.7-5-4.3l-2-1.1zM666 343.3c0 .2 1.5 1.4 3.3 2.7l3.2 2.3-2.4-2.6c-2.1-2.3-4.1-3.5-4.1-2.4M650 350c1.1 1.1 2.3 2 2.7 2 .3 0-.2-.9-1.2-2s-2.2-2-2.7-2c-.4 0 .1.9 1.2 2M685 386.4c0 .2.8 1 1.8 1.7 1.5 1.3 1.6 1.2.3-.4s-2.1-2.1-2.1-1.3M690 392.9c0 .4 1.2 1.8 2.6 3.2l2.6 2.4-1.2-2.7c-1.2-2.6-4-4.6-4-2.9M716.2 398.5c-1 1.2-.8 1.6.7 2.5 2.5 1.3 4-.6 2-2.5-1.2-1.1-1.6-1.1-2.7 0M701.8 407.5c.6 1.1 2.1 3.1 3.2 4.5l2.1 2.5-1.5-3.1c-.8-1.7-2.2-3.7-3.2-4.5-1.6-1.3-1.6-1.2-.6.6M718 415.5c0 .5.5 1.7 1 2.5s1 1 1 .5c0-.6-.5-1.7-1-2.5s-1-1.1-1-.5M712 422c.6 1.1 1.3 2 1.6 2 .2 0 0-.9-.6-2s-1.3-2-1.6-2c-.2 0 0 .9.6 2M249.5 450.1c-.4.6-.5 1.2-.2 1.5.2.3.7-.2 1-1.1.7-1.7.1-2-.8-.4M215.7 559.7c-.4.3-.7 1.3-.7 2.2.1 1.3.3 1.3 1.1-.2 1.1-1.9.8-3.3-.4-2M1015.3 385.5c-8.6 3.7-9.3 16.5-1.1 21.5 4 2.4 7.8 2.5 11.9.5 3.4-1.8 6.9-6.9 6.9-10.3 0-4-2.8-9.1-6.2-11.2-3.8-2.3-7-2.5-11.5-.5M915.9 403.5c-3.6 1.9-6.3 7.8-5.6 12.2.9 5.2 3.1 7.9 8.1 9.8 4.4 1.7 4.6 1.7 9-.4 8.7-4.2 9.6-15.5 1.7-20.8-3.9-2.6-9.3-2.9-13.2-.8M980.6 421.6c-.9.8-1.6 2.3-1.6 3.3 0 2.1-1.9 4.1-4 4.1-.8 0-2.8-1.4-4.2-3.1-3.4-3.8-7.2-3.6-10.2.4l-2.1 2.8 2.3 4.3c7.4 13.9 28.2 10 29.9-5.6.4-3.3.1-4.9-1.2-6.1-2.1-2.1-6.9-2.2-8.9-.1M576 575.5c-1.4.8-2 1.4-1.5 1.4.6 0 2.1-.6 3.5-1.4s2.1-1.4 1.5-1.4c-.5 0-2.1.6-3.5 1.4M549.3 586.2c-4 1.8-7.1 3.4-6.8 3.6.6.6 14.4-4.8 15.1-5.9.9-1.4-.6-1-8.3 2.3M520 598.5c-1.4.8-2 1.4-1.5 1.4.6 0 2.1-.6 3.5-1.4s2.1-1.4 1.5-1.4c-.5 0-2.1.6-3.5 1.4M498.2 607.2c-5.7 2.2-10.1 4.2-9.9 4.5.3.2 2.1-.3 4.1-1.1 3.3-1.4 4-1.3 3.7.6-.1 1.1.8 1 4.9-.5 1.9-.6 3.5-1.9 3.5-2.7-.1-.8 1.3-2.3 3-3.2 5-2.8 1.6-2-9.3 2.4M480.5 614.4c-2.1.9-2.5 1.4-1.4 1.8.8.3 2.6-.3 4-1.3 2.8-2.1 1.7-2.4-2.6-.5M482.8 616.7c.7.3 1.6.2 1.9-.1.4-.3-.2-.6-1.3-.5-1.1 0-1.4.3-.6.6M790.7 805.6c-1 3.1-1.7 5.8-1.4 6 .3.3 1.4-2.2 2.5-5.5 1.1-3.4 1.8-6.1 1.4-6.1s-1.5 2.5-2.5 5.6M802.2 812.5c-1.7 3.7-1.4 4.5.4 1.2.9-1.6 1.4-3.1 1.1-3.3-.2-.2-.9.7-1.5 2.1M785.6 820.7c-.9 2.6-1.2 4.3-.7 3.8 1.1-1.3 3.2-7.7 2.7-8.2-.2-.2-1.1 1.7-2 4.4M783.1 827.6c0 1.1.3 1.4.6.6.3-.7.2-1.6-.1-1.9-.3-.4-.6.2-.5 1.3M627.5 1035c.3.5 1.1 1 1.6 1 .6 0 .7-.5.4-1-.3-.6-1.1-1-1.6-1-.6 0-.7.4-.4 1"/></svg>